<svg width="1039" height="200" viewBox="0 0 1039 200" fill="none" xmlns="http://www.w3.org/2000/svg">
<path d="M6.62486 99.1893L12.825 90.7037C15.8411 93.2851 18.7164 95.2582 21.4508 96.6229C24.2226 98.0062 26.5074 99.0062 28.3052 99.6227L29.7073 96.8134L24.8748 93.8401C20.5106 91.1474 17.9063 88.4908 17.0619 85.8703C16.2737 83.2311 16.7488 80.1697 18.4874 76.6861C20.8803 71.8916 23.5555 69.1094 26.513 68.3396C29.508 67.5886 33.4964 68.4562 38.4783 70.9426C43.4601 73.4289 47.7214 76.1405 51.262 79.0772L45.3706 87.366C42.1675 85.0656 39.5171 83.3919 37.4195 82.345C35.3218 81.2981 33.4959 80.5038 31.9416 79.962L30.5675 82.7151L34.4166 85.1274C39.0806 88.0633 41.8816 90.9351 42.8198 93.7427C43.7766 96.5129 43.4325 99.5461 41.7874 102.842C40.6096 105.202 39.2911 107.047 37.8317 108.378C36.3911 109.67 35.0063 110.523 33.6773 110.936C32.4045 111.33 30.8506 111.35 29.0156 110.996C27.1806 110.641 25.6264 110.193 24.3529 109.651C23.0981 109.165 21.4594 108.418 19.4367 107.408C14.5672 104.978 10.2966 102.238 6.62486 99.1893Z" fill="#222222"/>
<path d="M72.391 95.4042C81.6137 99.3902 84.8549 104.554 82.1145 110.894L73.3952 131.069L67.6309 128.578L65.7654 123.872C64.0863 124.697 62.1282 125.059 59.8913 124.959C57.6543 124.859 55.6712 124.435 53.9419 123.687C52.2511 122.957 50.945 122.233 50.0237 121.515C49.1024 120.798 48.2834 119.897 47.5666 118.811C45.9741 116.481 45.9916 113.433 47.6192 109.667C50.6087 102.75 57.3297 101.551 67.7822 106.068L70.0879 107.064L70.9847 104.989C69.7882 104.381 68.7865 103.902 67.9795 103.554C63.6371 101.677 59.6854 100.585 56.1243 100.277L58.3034 91.4363C62.661 91.9059 67.3569 93.2285 72.391 95.4042ZM59.811 113.432L58.7896 115.795L61.153 116.816C62.8438 117.547 64.0028 117.82 64.63 117.635C65.2957 117.467 65.7614 117.075 66.0271 116.46L67.198 113.751L64.8347 112.73C63.4513 112.132 62.3665 111.845 61.5803 111.87C60.8492 111.874 60.2595 112.394 59.811 113.432Z" fill="#222222"/>
<path d="M88.8969 133.616L92.099 104.796L103.872 109.169L100.004 129.503L100.593 129.721L110.936 111.792L122.709 116.165L104.419 142.865C101.892 146.303 99.5635 148.363 97.4342 149.046C95.2904 149.768 92.6683 149.553 89.5681 148.402L78.148 144.16L80.9904 136.508L86.9173 137.503C89.9761 137.925 92.083 137.904 93.2378 137.439C93.8691 137.183 94.4583 136.799 95.0055 136.287L95.0778 135.912L88.8969 133.616Z" fill="#222222"/>
<path d="M152.173 138.083L146.789 156.66L134.726 153.163L146.09 113.96L158.414 116.551L155.215 127.589C158.173 127.008 161.22 127.172 164.357 128.081C167.493 128.99 169.684 130.301 170.932 132.013C172.19 133.686 172.505 135.608 171.876 137.779L164.883 161.904L152.82 158.408L158.939 137.298L157.069 136.756C155.622 136.337 154.51 136.189 153.733 136.312C153.008 136.407 152.488 136.998 152.173 138.083Z" fill="#222222"/>
<path d="M176.54 164.794L183.565 135.805L196.141 137.237L188.746 167.752L176.54 164.794ZM185.08 132.489C184.352 131.58 184.21 130.211 184.654 128.38C185.098 126.549 185.856 125.376 186.928 124.86C188.041 124.355 189.941 124.427 192.626 125.078C195.352 125.739 197.074 126.544 197.791 127.493C198.55 128.452 198.707 129.847 198.263 131.678C197.82 133.509 197.046 134.657 195.943 135.122C194.88 135.596 192.986 135.503 190.26 134.843C187.574 134.192 185.848 133.407 185.08 132.489Z" fill="#222222"/>
<path d="M214.666 162.446L204.213 160.277L207.83 133.579C208.06 132.472 208.933 132.076 210.45 132.391L220.041 134.381C221.558 134.696 222.201 135.407 221.972 136.514L214.666 162.446ZM201.864 170.051C201.107 169.167 200.911 167.844 201.277 166.081C201.643 164.318 202.374 163.166 203.47 162.624C204.566 162.082 206.466 162.091 209.171 162.653C211.877 163.214 213.604 163.958 214.352 164.883C215.142 165.816 215.354 167.164 214.988 168.927C214.622 170.689 213.896 171.821 212.808 172.322C211.762 172.832 209.866 172.802 207.119 172.232C204.414 171.67 202.662 170.943 201.864 170.051Z" fill="#222222"/>
<path d="M260.301 148.249C270.249 149.655 274.74 153.777 273.773 160.617L270.698 182.379L264.48 181.5L261.437 177.455C260.035 178.695 258.243 179.562 256.059 180.056C253.875 180.551 251.85 180.667 249.985 180.403C248.161 180.145 246.71 179.792 245.632 179.344C244.554 178.896 243.526 178.243 242.548 177.386C240.396 175.56 239.607 172.616 240.181 168.553C241.235 161.092 247.4 158.158 258.675 159.751L261.162 160.103L261.478 157.865C260.164 157.594 259.071 157.398 258.201 157.274C253.516 156.613 249.417 156.604 245.901 157.249L245.665 148.146C249.992 147.447 254.87 147.481 260.301 148.249ZM252.934 168.96L252.574 171.51L255.123 171.87C256.947 172.128 258.137 172.084 258.693 171.74C259.29 171.402 259.636 170.901 259.73 170.238L260.143 167.316L257.593 166.955C256.101 166.744 254.979 166.755 254.228 166.987C253.523 167.183 253.092 167.841 252.934 168.96Z" fill="#222222"/>
<path d="M291.096 152.946L293.959 156.34C298.069 153.958 302.355 152.957 306.819 153.336C309.739 153.584 311.978 154.426 313.537 155.861C315.099 157.254 315.784 159.077 315.593 161.329L313.466 186.357L300.952 185.294L302.813 163.394L300.873 163.23C299.455 163.109 298.356 163.184 297.577 163.454C296.843 163.685 296.435 164.281 296.354 165.24L294.695 184.762L282.181 183.699L284.839 152.414L291.096 152.946Z" fill="#222222"/>
<path d="M356.646 187.913L350.369 187.739L347.743 185.027C345.835 187.361 342.517 188.462 337.788 188.331C335.236 188.26 333.052 187.717 331.238 186.704C329.423 185.69 328.058 184.333 327.142 182.632C325.43 179.444 324.634 175.673 324.755 171.321C324.903 166.006 326.187 162.022 328.606 159.367C329.514 158.345 330.751 157.521 332.318 156.894C333.886 156.226 335.696 155.92 337.746 155.978L344.965 156.178L345.227 146.763L357.807 146.17L356.646 187.913ZM338.386 166.863L338.043 179.166L339.989 179.22C341.412 179.26 342.462 179.164 343.138 178.931C343.858 178.658 344.273 178.041 344.383 177.081L344.736 164.401L342.79 164.347C341.284 164.305 340.17 164.442 339.449 164.757C338.772 165.031 338.417 165.733 338.386 166.863Z" fill="#222222"/>
<path d="M395.156 145.318L396.372 178.075C397.72 178.276 398.75 178.385 399.463 178.4L399.241 187.646C393.886 187.844 390.339 187.662 388.6 187.098C386.437 186.382 385.082 185.427 384.535 184.233C384.173 183.492 383.973 182.62 383.936 181.616L382.641 146.725L395.156 145.318Z" fill="#222222"/>
<path d="M420.878 174.863L421.056 177.054C422.318 177.078 423.575 177.039 424.826 176.938C428.707 176.624 432.579 175.68 436.441 174.107L438.689 183.186C434.117 184.817 429.536 185.818 424.946 186.189C419.104 186.662 414.759 185.649 411.91 183.15C409.1 180.605 407.469 176.537 407.016 170.946C406.563 165.354 407.521 161.098 409.888 158.176C412.294 155.209 416.397 153.491 422.197 153.021C428.039 152.548 432.13 153.015 434.469 154.422C436.809 155.828 438.155 158.701 438.506 163.041C438.804 166.713 437.683 169.471 435.144 171.314C432.644 173.113 427.889 174.296 420.878 174.863ZM420.083 165.037L420.291 167.603L422.857 167.395C424.359 167.273 425.432 167.04 426.076 166.693C426.758 166.302 427.054 165.543 426.963 164.417L426.755 161.85L424.189 162.058C422.686 162.18 421.594 162.436 420.912 162.828C420.268 163.174 419.992 163.91 420.083 165.037Z" fill="#222222"/>
<path d="M445.971 159.862L444.949 151.826L448.064 151.43L447.43 146.447L459.493 141.748L460.523 149.846L464.821 149.299L465.843 157.335L461.544 157.882L463.351 172.085C464.457 172.155 465.7 172.144 467.081 172.053L467.685 181.282C461.996 182.005 458.26 182.164 456.478 181.757C454.265 181.279 452.809 180.452 452.111 179.274C451.684 178.569 451.407 177.718 451.28 176.721L449.086 159.466L445.971 159.862Z" fill="#222222"/>
<path d="M486.201 142.687L486.321 143.431C486.491 145.27 486.265 147.151 485.643 149.075C485.44 149.659 485.325 149.996 485.297 150.085L482.445 159.197L476.637 158.291L477.24 149.034C475.753 149.02 474.684 148.705 474.034 148.089C473.417 147.425 472.952 146.122 472.638 144.18C472.318 142.196 472.532 140.635 473.281 139.496C474.03 138.357 475.726 137.574 478.371 137.147C481.058 136.712 482.935 136.918 484.005 137.763C485.075 138.607 485.806 140.249 486.201 142.687Z" fill="#222222"/>
<path d="M498.758 145.001C501.131 143.021 504.615 141.562 509.209 140.625C513.803 139.687 518.157 139.461 522.273 139.945L522.565 148.602C519.182 148.352 515.89 148.554 512.691 149.207C511.706 149.408 510.329 149.775 508.557 150.307L508.959 152.276C515.604 150.92 520.317 150.984 523.098 152.467C524.488 153.208 525.551 154.124 526.286 155.213C527.012 156.261 527.547 157.626 527.891 159.308C528.225 160.948 528.322 162.467 528.179 163.863C528.078 165.251 527.697 166.418 527.036 167.365C526.415 168.304 525.725 169.107 524.964 169.775C524.203 170.443 523.146 171.022 521.793 171.511C519.686 172.283 517.197 172.962 514.326 173.548C509.24 174.586 504.524 174.929 500.18 174.577L499.935 165.526C503.598 165.889 507.439 165.661 511.459 164.84C513.305 164.463 514.97 164.038 516.454 163.564L516.052 161.595C509.489 162.935 504.781 162.999 501.927 161.786C499.115 160.566 497.302 157.966 496.49 153.988C495.67 149.968 496.426 146.972 498.758 145.001Z" fill="#222222"/>
<path d="M559.249 162.296L544.421 133.917L556.235 130.467L563.934 147.648L564.597 147.454L563.167 128.443L572.209 125.803L580.812 142.719L581.475 142.526L579.141 123.778L590.955 120.328L593.728 152.228L578.9 156.558L572.765 144.284L572.282 144.425L573.475 158.142L559.249 162.296Z" fill="#222222"/>
<path d="M610.951 143.127C607.566 141.42 604.912 137.932 602.991 132.662C601.069 127.391 600.861 123.033 602.367 119.588C603.898 116.088 607.417 113.335 612.923 111.327C618.43 109.319 622.875 109.168 626.26 110.875C629.67 112.528 632.336 115.99 634.258 121.26C636.18 126.53 636.375 130.915 634.844 134.414C633.338 137.86 629.831 140.587 624.325 142.594C618.819 144.602 614.361 144.78 610.951 143.127ZM614.018 123.494L618.235 135.057L620.063 134.39C621.479 133.874 622.452 133.363 622.981 132.858C623.534 132.3 623.618 131.49 623.231 130.428L619.014 118.865L617.185 119.531C615.769 120.048 614.784 120.585 614.231 121.144C613.702 121.648 613.631 122.432 614.018 123.494Z" fill="#222222"/>
<path d="M638.048 102.731L643.838 100.301L648.383 102.207C649.786 99.1667 652.067 96.5975 655.228 94.4995L660.515 105.152C659.605 105.579 658.486 106.321 657.159 107.377C655.87 108.418 655.093 109.379 654.828 110.262L661.778 126.822L650.198 131.682L638.048 102.731Z" fill="#222222"/>
<path d="M693.386 112.518L683.682 103.364L683.285 103.553L688.622 114.782L677.279 120.174L659.757 83.3091L670.696 77.0669L679.592 95.7827L679.989 95.594L679.624 84.2952L691.874 78.4724L691.711 95.0975L705.637 106.695L693.386 112.518Z" fill="#222222"/>
<path d="M711.81 78.1279L707.665 71.1677L710.363 69.5614L707.793 65.2449L716.978 56.122L721.154 63.1363L724.877 60.9196L729.021 67.8798L725.299 70.0965L732.623 82.3984C733.666 82.0214 734.802 81.5155 736.031 80.8806L740.268 89.1012C735.34 92.0354 731.978 93.6717 730.182 94.0103C727.962 94.4551 726.297 94.2771 725.187 93.4764C724.514 93.0003 723.92 92.3306 723.406 91.4673L714.507 76.5216L711.81 78.1279Z" fill="#222222"/>
<path d="M749.683 79.6723C746.208 78.1574 743.364 74.8227 741.151 69.668C738.937 64.5133 738.486 60.1738 739.798 56.6493C741.131 53.0699 744.491 50.1241 749.876 47.8118C755.262 45.4995 759.692 45.1008 763.167 46.6156C766.664 48.0755 769.519 51.3828 771.732 56.5375C773.946 61.6921 774.386 66.0592 773.052 69.6386C771.741 73.163 768.392 76.0813 763.007 78.3936C757.621 80.7059 753.18 81.1321 749.683 79.6723ZM751.649 59.8984L756.505 71.2079L758.293 70.4399C759.678 69.8453 760.621 69.2813 761.12 68.7477C761.642 68.1592 761.68 67.3456 761.234 66.307L756.378 54.9975L754.59 55.7655C753.205 56.3601 752.251 56.9517 751.73 57.5402C751.23 58.0737 751.203 58.8598 751.649 59.8984Z" fill="#222222"/>
<path d="M787.591 76.6392L786.823 67.1724C790.572 67.4544 794.757 66.9965 799.376 65.7987C800.754 65.4415 801.716 65.1488 802.263 64.9206L801.711 62.7931C798.104 63.7283 795.697 64.2011 794.489 64.2117C793.311 64.1712 792.502 64.0564 792.064 63.8673C791.656 63.6272 791.385 63.4163 791.251 63.2347C791.158 63.0426 791.064 62.7642 790.97 62.3995L791.438 56.6991C788.384 56.9288 785.871 56.4126 783.901 55.1504C781.97 53.8777 780.548 51.4786 779.634 47.9531C778.709 44.387 779.211 41.4025 781.14 38.9995C783.068 36.5965 786.728 34.6963 792.117 33.2988C794.062 32.7945 795.816 32.4695 797.378 32.3239L801.611 26.88L809.585 31.3644L807.176 36.3354C808.071 37.6172 808.807 39.3724 809.385 41.6012C810.215 44.8026 810.025 47.4036 808.813 49.4043C807.632 51.354 805.037 53.0215 801.029 54.407L801.164 55.9289C805.603 55.0372 808.856 54.9073 810.923 55.5391C813.02 56.1199 814.441 57.8488 815.187 60.726C816.459 65.6294 814.876 69.2833 810.44 71.6878C808.247 72.9051 805.145 74.0339 801.133 75.0741C797.161 76.1038 792.648 76.6255 787.591 76.6392ZM791.046 44.9292L792.07 48.8802L793.955 48.3917C795.414 48.0134 796.43 47.5984 797.005 47.1466C797.61 46.6438 797.771 45.8453 797.487 44.7512L796.462 40.8001L794.578 41.2887C793.119 41.667 792.087 42.1075 791.483 42.6103C790.908 43.0621 790.762 43.8351 791.046 44.9292Z" fill="#222222"/>
<path d="M834.791 47.2891L835.023 49.4747C836.285 49.4673 837.541 49.3974 838.79 49.2651C842.661 48.8549 846.508 47.8158 850.331 46.1479L852.802 55.1686C848.272 56.9115 843.717 58.0256 839.138 58.5108C833.309 59.1283 828.941 58.223 826.031 55.7949C823.159 53.3207 821.427 49.2944 820.836 43.7159C820.245 38.1374 821.097 33.8584 823.391 30.879C825.723 27.8535 829.782 26.0342 835.569 25.4211C841.397 24.8036 845.498 25.169 847.872 26.5171C850.246 27.8653 851.663 30.7042 852.121 35.0338C852.509 38.6973 851.457 41.482 848.965 43.3878C846.51 45.2477 841.785 46.5481 834.791 47.2891ZM833.753 37.4851L834.024 40.0454L836.584 39.7741C838.083 39.6153 839.15 39.355 839.785 38.993C840.458 38.5849 840.734 37.8189 840.615 36.6949L840.344 34.1346L837.784 34.4059C836.285 34.5647 835.199 34.8481 834.527 35.2561C833.892 35.6181 833.634 36.3611 833.753 37.4851Z" fill="#222222"/>
<path d="M862.079 32.7228L862.259 24.6242L865.398 24.6939L865.509 19.6716L878.135 16.8116L877.954 24.973L882.285 25.0693L882.105 33.1679L877.774 33.0716L877.456 47.3854C878.539 47.6189 879.77 47.7928 881.15 47.9072L880.38 57.1233C874.646 56.9958 870.928 56.5991 869.226 55.9332C867.108 55.1324 865.791 54.0981 865.275 52.8305C864.957 52.0697 864.809 51.187 864.831 50.1825L865.218 32.7925L862.079 32.7228Z" fill="#222222"/>
<path d="M905.647 39.6347L902.686 58.7477L890.275 56.8249L896.524 16.4891L909.08 17.4811L907.32 28.8372C910.179 27.8821 913.222 27.6546 916.449 28.1545C919.676 28.6544 922.018 29.6738 923.474 31.2127C924.936 32.7101 925.494 34.5759 925.148 36.8098L921.303 61.6319L908.892 59.7091L912.257 37.9898L910.333 37.6918C908.844 37.4611 907.722 37.4567 906.967 37.6787C906.26 37.8657 905.82 38.5177 905.647 39.6347Z" fill="#222222"/>
<path d="M946.169 57.5899L945.5 59.6835C946.658 60.1853 947.835 60.6274 949.032 61.0096C952.74 62.1946 956.68 62.7941 960.85 62.8082L959.477 72.0599C954.628 71.8292 950.01 71.013 945.624 69.6115C940.041 67.8277 936.408 65.2385 934.724 61.8437C933.092 58.4218 933.13 54.0391 934.837 48.6955C936.545 43.3519 939.049 39.7791 942.349 37.977C945.702 36.1478 950.15 36.1187 955.693 37.8898C961.276 39.6735 964.882 41.6608 966.512 43.8514C968.141 46.042 968.293 49.211 966.968 53.3582C965.847 56.8675 963.762 58.992 960.713 59.7317C957.716 60.4444 952.868 59.7304 946.169 57.5899ZM949.169 48.1987L948.386 50.6512L950.838 51.4348C952.274 51.8935 953.355 52.0852 954.083 52.0099C954.862 51.9075 955.424 51.3179 955.768 50.2412L956.552 47.7888L954.099 47.0052C952.664 46.5465 951.556 46.3684 950.776 46.4708C950.049 46.5461 949.513 47.122 949.169 48.1987Z" fill="#222222"/>
<path d="M982.192 48.7173L987.876 51.3856L989.508 56.0365C992.705 55.0397 996.14 55.0108 999.815 55.9498L995.454 67.0135C994.527 66.6245 993.227 66.2915 991.553 66.0145C989.917 65.7554 988.683 65.8234 987.85 66.2186L980.218 82.476L968.85 77.1392L982.192 48.7173Z" fill="#222222"/>
<path d="M1010.26 86.9246L1001.11 81.4293L1013.33 57.4177C1013.91 56.4486 1014.87 56.3628 1016.19 57.1601L1024.59 62.2029C1025.92 63.0002 1026.29 63.8834 1025.71 64.8525L1010.26 86.9246ZM995.668 89.8815C995.244 88.7972 995.496 87.4835 996.423 85.9402C997.349 84.3969 998.419 83.55 999.633 83.3996C1000.85 83.2493 1002.64 83.8852 1005.01 85.3075C1007.37 86.7298 1008.76 88.0011 1009.16 89.1212C1009.6 90.2629 1009.35 91.6054 1008.43 93.1487C1007.5 94.692 1006.44 95.5209 1005.25 95.6354C1004.09 95.7714 1002.31 95.1175 999.909 93.6736C997.541 92.2513 996.127 90.9873 995.668 89.8815Z" fill="#222222"/>
</svg>
