<svg width="29" height="31" viewBox="0 0 29 31" fill="none" xmlns="http://www.w3.org/2000/svg">
<path d="M14.285 1.15082C14.3485 0.667279 15.0483 0.667276 15.1117 1.15082L16.2259 9.64399C16.2714 9.9911 16.6986 10.1309 16.9406 9.87786L22.8879 3.65724C23.2253 3.30437 23.79 3.71922 23.5542 4.14668L19.4196 11.6423C19.2496 11.9505 19.5144 12.3177 19.8605 12.2536L28.3414 10.6829C28.8222 10.5938 29.0371 11.2624 28.5945 11.4702L20.812 15.1226C20.4923 15.2726 20.4923 15.7274 20.812 15.8774L28.5945 19.5298C29.0371 19.7376 28.8222 20.4062 28.3414 20.3171L19.8605 18.7464C19.5144 18.6823 19.2496 19.0495 19.4196 19.3577L23.5542 26.8533C23.79 27.2808 23.2253 27.6956 22.8879 27.3428L16.9406 21.1221C16.6986 20.8691 16.2714 21.0089 16.2259 21.356L15.1117 29.8492C15.0483 30.3327 14.3485 30.3327 14.285 29.8492L13.1709 21.356C13.1253 21.0089 12.6981 20.8691 12.4562 21.1221L6.50886 27.3428C6.1715 27.6956 5.60671 27.2808 5.8425 26.8533L9.97717 19.3577C10.1472 19.0495 9.88231 18.6823 9.53622 18.7464L1.05533 20.3171C0.57454 20.4062 0.359652 19.7376 0.802299 19.5298L8.58475 15.8774C8.90444 15.7274 8.90444 15.2726 8.58474 15.1226L0.802296 11.4702C0.359649 11.2624 0.57454 10.5938 1.05533 10.6829L9.53622 12.2536C9.88231 12.3177 10.1472 11.9505 9.97717 11.6423L5.8425 4.14668C5.60671 3.71922 6.1715 3.30438 6.50886 3.65724L12.4562 9.87786C12.6981 10.1309 13.1253 9.9911 13.1709 9.64399L14.285 1.15082Z" fill="#F8EEEC"/>
</svg>
