<svg width="29" height="29" viewBox="0 0 29 29" fill="none" xmlns="http://www.w3.org/2000/svg">
<path d="M15.2175 0C18.9887 0.129276 22.4905 1.42201 25.0495 4.7832C28.9554 9.95424 30.5716 15.6424 27.0698 21.2013C21.6824 29.7335 14.4094 31.0263 6.19356 26.2431C0.536779 22.8819 -1.07945 15.5132 0.671456 9.825C2.42236 3.74902 8.07915 0 15.2175 0ZM6.86699 19.0036C7.27104 19.7792 7.67508 20.4256 7.94446 21.2013C8.21383 21.8477 8.75257 22.1062 9.426 22.1062C10.2341 22.1062 10.6382 21.8477 10.7729 21.2013C10.9075 20.4256 10.5035 20.2964 9.96474 20.1671C8.88725 19.9085 7.94447 19.1329 6.86699 19.0036C6.05888 17.4523 4.98138 16.0302 5.25075 14.0911C5.78949 11.247 6.32824 8.27366 6.7323 5.55886C7.80978 5.30031 8.34853 5.55889 8.88727 5.94671C10.3688 6.85165 11.8503 7.36873 13.7359 6.85162C14.4094 6.72235 15.2175 6.85163 16.0256 6.98091C17.5071 7.23946 18.7193 7.11017 19.9315 6.07596C21.413 4.91247 22.0864 5.30033 22.2211 7.23948C22.3558 9.04934 22.2211 10.8592 23.0292 12.6691C24.3761 15.5132 22.8945 19.1329 19.1233 20.1671C18.4499 20.2964 17.9112 20.5549 18.1805 21.4599C18.5846 23.0112 18.3152 24.6918 19.1233 26.2431C24.1067 24.0454 26.531 21.072 27.2045 16.4181C27.4738 14.4789 27.0698 12.4105 26.531 10.6006C23.568 0.387805 15.2175 -0.775657 7.40572 3.23191C4.30796 4.78322 2.42236 7.88587 1.61425 11.3763C0.940823 14.2204 1.74894 16.8059 2.42237 19.5207C3.36517 22.6233 5.52013 24.5624 8.48321 25.8552C8.88726 26.1138 9.56069 26.5016 9.83006 25.726C10.0994 25.0796 9.83007 24.5625 8.88727 24.4332C7.54042 24.3039 6.19356 24.0453 5.7895 22.6233C5.52013 21.3305 4.44265 20.4256 3.76922 19.5207C4.8467 18.8743 5.92419 19.3914 6.86699 19.0036Z" fill="#222222"/>
</svg>
