<svg width="29" height="29" viewBox="0 0 29 29" fill="none" xmlns="http://www.w3.org/2000/svg">
<path d="M24.4256 4.10668C23.6072 5.08329 22.7889 5.66923 22.1752 6.45052C21.1523 7.81778 20.3339 8.01314 18.6973 7.03652C14.8102 4.88797 11.5369 5.86455 8.26356 9.38036C5.80856 11.9196 5.60399 15.8261 7.44524 18.9512C10.1048 23.2483 19.1064 23.4436 21.9706 19.3419C22.7889 18.1699 22.3798 17.1933 20.7431 16.998C19.7202 16.8027 18.4927 17.1933 17.2652 16.998C15.2194 16.8027 14.401 15.8261 14.6056 13.8728C14.6056 11.9196 16.0377 11.7243 17.6744 11.7243C20.5385 11.7243 23.1981 11.7243 26.0622 11.9196C29.131 12.1149 29.3356 12.5055 28.7218 15.4354C28.7218 15.826 28.3127 16.412 28.3127 16.8027C27.2898 21.8811 25.4485 26.1782 19.7202 27.7408C13.5827 29.3034 8.05897 27.9361 3.55815 23.8343C-1.35184 19.3419 -1.14726 9.38038 3.96731 4.69262C10.1048 -1.36239 18.4927 -1.55769 24.4256 4.10668Z" fill="#222222"/>
</svg>
