<svg width="29" height="30" viewBox="0 0 29 30" fill="none" xmlns="http://www.w3.org/2000/svg">
<path d="M14.286 29.653C11.6291 29.653 8.97226 29.812 6.4717 29.653C2.87714 29.3348 1.47056 28.0623 0.845423 24.2446C0.0639978 19.7906 -0.248563 15.4957 0.220292 11.0418C0.376577 9.45107 0.532853 7.70129 0.845423 6.11059C1.31428 2.77011 2.72085 1.33848 6.00284 0.543127C7.4094 0.224986 8.65969 0.0658967 10.0663 0.224967C13.0357 0.384037 16.0051 0.384028 18.9745 0.065887C20.3811 -0.0931832 21.6313 0.0658967 23.0379 0.224967C25.6947 0.543107 27.5702 1.97477 27.8827 4.67896C28.8205 11.3599 29.6019 18.0408 28.3516 24.7218C27.7265 27.9032 26.3199 29.1758 23.1942 29.812C20.3811 29.9711 17.4117 29.812 14.286 29.653ZM14.9111 8.33756C11.3165 8.17849 8.19082 10.8827 7.87825 14.2232C7.56568 18.359 10.0663 21.0632 14.286 21.3813C17.5679 21.5404 20.6936 18.6771 21.0062 15.0185C21.3188 11.6781 18.5056 8.49663 14.9111 8.33756ZM24.6008 5.79243C24.4445 4.838 23.9756 4.20172 22.8816 4.20172C21.6314 4.20172 21.0062 4.99709 21.0062 6.11059C21.0062 7.22408 21.6314 8.0194 22.8816 8.0194C24.1319 7.86033 24.6008 7.06499 24.6008 5.79243Z" fill="#222222"/>
</svg>
