<svg width="91" height="117" viewBox="0 0 91 117" fill="none" xmlns="http://www.w3.org/2000/svg">
<path d="M42.7117 26.6055C46.2169 26.6055 48.9709 27.7663 50.9739 30.0879C52.9768 32.4095 53.9783 35.5732 53.9783 39.5791C53.9783 41.7186 53.6824 43.972 53.0906 46.3391C51.725 51.9838 49.1758 56.2856 45.443 59.2445C41.7102 62.1579 37.3857 63.6145 32.4693 63.6145C29.3283 63.6145 26.5971 62.9545 24.2755 61.6344L22.0904 68.9406C21.9083 69.4413 21.8173 69.9193 21.8173 70.3745C21.8173 70.8752 21.9311 71.2849 22.1587 71.6036C22.3863 71.9678 22.6822 72.3092 23.0464 72.6278C23.4105 72.992 23.6381 73.2879 23.7292 73.5155C23.8658 73.7431 23.8885 74.0162 23.7975 74.3349C23.6154 74.9267 23.1829 75.3364 22.5001 75.564C21.8173 75.8371 20.7703 75.9737 19.3591 75.9737H3.72244C2.53888 75.9737 1.69673 75.7688 1.196 75.3591C0.649736 74.9949 0.49041 74.517 0.718018 73.9252C0.809061 73.561 0.968387 73.2651 1.196 73.0375C1.4236 72.8099 1.74225 72.6051 2.15195 72.423C2.83477 71.9678 3.38103 71.4898 3.79073 70.989C4.20042 70.5338 4.56459 69.7827 4.88325 68.7357L14.8525 36.0284C14.989 35.6188 15.0573 35.2773 15.0573 35.0042C15.0573 34.5035 14.9435 34.1165 14.7159 33.8434C14.4883 33.5248 14.1469 33.2061 13.6917 32.8875C13.2365 32.5233 12.9178 32.2046 12.7357 31.9315C12.5536 31.6584 12.5309 31.2942 12.6674 30.839C12.9406 29.792 14.3745 28.8816 16.9692 28.1077C19.564 27.2883 22.2725 26.8786 25.0948 26.8786C27.0978 26.8786 28.7366 27.3793 30.0112 28.3808C31.3313 29.3823 32.0824 30.7707 32.2645 32.546C35.36 28.5857 38.8424 26.6055 42.7117 26.6055ZM34.7909 46.8854C35.8835 42.8339 36.4297 40.0343 36.4297 38.4866C36.4297 37.5307 36.2704 36.9161 35.9517 36.643C35.6786 36.3243 35.2689 36.165 34.7227 36.165C34.313 36.165 33.7895 36.3699 33.1522 36.7796C32.5149 37.1437 31.8776 37.781 31.2403 38.6915L25.8459 56.5815C26.3922 57.1277 27.0523 57.4008 27.8261 57.4008C29.0552 57.4008 30.216 56.718 31.3085 55.3524C32.4466 53.9412 33.6074 51.1189 34.7909 46.8854Z" fill="#E85C3B"/>
<path d="M50.9739 30.0879L52.9455 28.3869L52.9455 28.3869L50.9739 30.0879ZM53.0906 46.3391L50.5644 45.7075L50.562 45.7171L50.5597 45.7268L53.0906 46.3391ZM45.443 59.2445L47.0452 61.2972L47.0529 61.2912L47.0606 61.2851L45.443 59.2445ZM24.2755 61.6344L25.5626 59.3707L22.7182 57.7533L21.7806 60.8882L24.2755 61.6344ZM22.0904 68.9406L24.5376 69.8305L24.5635 69.7593L24.5852 69.6867L22.0904 68.9406ZM22.1587 71.6036L24.3669 70.2235L24.3243 70.1554L24.2776 70.09L22.1587 71.6036ZM23.0464 72.6278L24.8877 70.7865L24.8264 70.7252L24.7611 70.6681L23.0464 72.6278ZM23.7292 73.5155L21.3114 74.4826L21.3889 74.6763L21.4963 74.8552L23.7292 73.5155ZM23.7975 74.3349L26.2863 75.1007L26.294 75.0755L26.3013 75.0503L23.7975 74.3349ZM22.5001 75.564L21.6767 73.0936L21.6041 73.1178L21.533 73.1462L22.5001 75.564ZM1.196 75.3591L2.84494 73.3437L2.74638 73.2631L2.64043 73.1925L1.196 75.3591ZM0.718018 73.9252L3.14844 74.86L3.20562 74.7113L3.24426 74.5567L0.718018 73.9252ZM1.196 73.0375L-0.645304 71.1962L-0.645306 71.1962L1.196 73.0375ZM2.15195 72.423L3.20953 74.8025L3.41201 74.7125L3.59638 74.5896L2.15195 72.423ZM3.79073 70.989L1.8552 69.2471L1.81418 69.2926L1.77535 69.3401L3.79073 70.989ZM4.88325 68.7357L2.39239 67.9765L2.39208 67.9775L4.88325 68.7357ZM14.8525 36.0284L12.3821 35.205L12.3715 35.237L12.3616 35.2692L14.8525 36.0284ZM14.7159 33.8434L12.597 35.3569L12.6534 35.4359L12.7155 35.5104L14.7159 33.8434ZM13.6917 32.8875L12.065 34.9208L12.1301 34.9729L12.1984 35.0207L13.6917 32.8875ZM12.7357 31.9315L10.5691 33.3759L10.5691 33.3759L12.7357 31.9315ZM12.6674 30.839L15.1616 31.5872L15.1752 31.542L15.1871 31.4963L12.6674 30.839ZM16.9692 28.1077L17.7135 30.6031L17.7335 30.5971L17.7534 30.5908L16.9692 28.1077ZM30.0112 28.3808L28.4024 30.4284L28.4197 30.442L28.4374 30.4554L30.0112 28.3808ZM32.2645 32.546L29.6741 32.8117L30.3339 39.2446L34.3161 34.1496L32.2645 32.546ZM34.7909 46.8854L37.2988 47.5865L37.302 47.5749L37.3051 47.5633L34.7909 46.8854ZM35.9517 36.643L33.9746 38.3376L34.105 38.4897L34.2571 38.6201L35.9517 36.643ZM33.1522 36.7796L34.4441 39.0405L34.5031 39.0067L34.5603 38.97L33.1522 36.7796ZM31.2403 38.6915L29.107 37.1982L28.8676 37.5401L28.7471 37.9397L31.2403 38.6915ZM25.8459 56.5815L23.3528 55.8297L22.9031 57.3212L24.0046 58.4228L25.8459 56.5815ZM31.3085 55.3524L29.2815 53.7177L29.2752 53.7257L31.3085 55.3524ZM42.7117 29.2095C45.5803 29.2095 47.5677 30.1261 49.0022 31.7889L52.9455 28.3869C50.3742 25.4064 46.8534 24.0015 42.7117 24.0015V29.2095ZM49.0022 31.7889C50.4858 33.5085 51.3743 36.0028 51.3743 39.5791H56.5823C56.5823 35.1436 55.4678 31.3105 52.9455 28.3869L49.0022 31.7889ZM51.3743 39.5791C51.3743 41.4784 51.1116 43.5186 50.5644 45.7075L55.6169 46.9707C56.2532 44.4253 56.5823 41.9589 56.5823 39.5791H51.3743ZM50.5597 45.7268C49.2998 50.9341 47.0099 54.6795 43.8254 57.2038L47.0606 61.2851C51.3416 57.8916 54.1501 53.0335 55.6216 46.9514L50.5597 45.7268ZM43.8408 57.1917C40.5843 59.7334 36.829 61.0106 32.4693 61.0106V66.2185C37.9423 66.2185 42.8362 64.5823 47.0452 61.2972L43.8408 57.1917ZM32.4693 61.0106C29.6997 61.0106 27.4278 60.4313 25.5626 59.3707L22.9883 63.898C25.7663 65.4776 28.957 66.2185 32.4693 66.2185V61.0106ZM21.7806 60.8882L19.5956 68.1945L24.5852 69.6867L26.7703 62.3805L21.7806 60.8882ZM19.6432 68.0507C19.3747 68.789 19.2133 69.5689 19.2133 70.3745H24.4213C24.4213 70.2696 24.4419 70.0936 24.5376 69.8305L19.6432 68.0507ZM19.2133 70.3745C19.2133 71.2664 19.4187 72.2477 20.0397 73.1171L24.2776 70.09C24.3551 70.1985 24.3942 70.2975 24.4116 70.3604C24.4278 70.4185 24.4213 70.4299 24.4213 70.3745H19.2133ZM19.9505 72.9837C20.3292 73.5896 20.7994 74.1219 21.3316 74.5875L24.7611 70.6681C24.565 70.4965 24.4434 70.3459 24.3669 70.2235L19.9505 72.9837ZM21.2051 74.4691C21.2679 74.5319 21.3172 74.5842 21.355 74.6264C21.3932 74.669 21.4157 74.6968 21.4262 74.7105C21.4374 74.7251 21.4295 74.7164 21.411 74.6859C21.4013 74.67 21.3871 74.6455 21.3704 74.613C21.3539 74.5806 21.3332 74.5369 21.3114 74.4826L26.1469 72.5484C25.8462 71.7966 25.2868 71.1856 24.8877 70.7865L21.2051 74.4691ZM21.4963 74.8552C21.3527 74.6159 21.2743 74.3547 21.2537 74.1073C21.2341 73.8724 21.2703 73.7012 21.2937 73.6195L26.3013 75.0503C26.5378 74.2225 26.5576 73.1683 25.9621 72.1757L21.4963 74.8552ZM21.3086 73.5691C21.3441 73.4538 21.4232 73.3117 21.5457 73.1956C21.6571 73.09 21.731 73.0755 21.6767 73.0936L23.3236 78.0343C24.6557 77.5903 25.8142 76.635 26.2863 75.1007L21.3086 73.5691ZM21.533 73.1462C21.3252 73.2293 20.6866 73.3697 19.3591 73.3697V78.5776C20.854 78.5776 22.3094 78.4448 23.4672 77.9817L21.533 73.1462ZM19.3591 73.3697H3.72244V78.5776H19.3591V73.3697ZM3.72244 73.3697C3.26825 73.3697 2.98014 73.3291 2.81862 73.2898C2.65383 73.2497 2.70938 73.2328 2.84494 73.3437L-0.45295 77.3745C0.766549 78.3723 2.37749 78.5776 3.72244 78.5776V73.3697ZM2.64043 73.1925C2.7023 73.2337 2.9848 73.447 3.13717 73.904C3.29361 74.3734 3.19403 74.7414 3.14844 74.86L-1.71241 72.9904C-1.9856 73.7007 -2.11932 74.6037 -1.80356 75.551C-1.49186 76.486 -0.856567 77.1203 -0.248439 77.5258L2.64043 73.1925ZM3.24426 74.5567C3.24333 74.5605 3.23261 74.6014 3.19853 74.6647C3.16336 74.73 3.11046 74.8057 3.0373 74.8788L-0.645306 71.1962C-1.25868 71.8096 -1.62199 72.5487 -1.80822 73.2936L3.24426 74.5567ZM3.03729 74.8788C2.99891 74.9172 2.98425 74.9226 3.01382 74.9036C3.0432 74.8847 3.10481 74.8491 3.20953 74.8025L1.09437 70.0434C0.499009 70.308 -0.121863 70.6728 -0.645304 71.1962L3.03729 74.8788ZM3.59638 74.5896C4.43937 74.0276 5.1958 73.3839 5.8061 72.638L1.77535 69.3401C1.56626 69.5956 1.23017 69.9079 0.707514 70.2563L3.59638 74.5896ZM5.72626 72.731C6.51894 71.8503 7.0188 70.6624 7.37441 69.4939L2.39208 67.9775C2.26081 68.4088 2.13609 68.7254 2.02802 68.9482C1.91683 69.1776 1.8493 69.2536 1.8552 69.2471L5.72626 72.731ZM7.3741 69.4949L17.3433 36.7877L12.3616 35.2692L2.39239 67.9765L7.3741 69.4949ZM17.3228 36.8519C17.5027 36.3122 17.6613 35.6712 17.6613 35.0042H12.4533C12.4533 34.9301 12.4619 34.9085 12.4527 34.9544C12.444 34.9977 12.424 35.0794 12.3821 35.205L17.3228 36.8519ZM17.6613 35.0042C17.6613 34.1397 17.4665 33.0766 16.7164 32.1764L12.7155 35.5104C12.4205 35.1565 12.4533 34.8672 12.4533 35.0042H17.6613ZM16.8349 32.3299C16.3798 31.6928 15.7893 31.1772 15.185 30.7542L12.1984 35.0207C12.3444 35.1229 12.4455 35.2067 12.5124 35.2691C12.5798 35.332 12.601 35.3626 12.597 35.3569L16.8349 32.3299ZM15.3184 30.8541C15.1453 30.7156 15.0276 30.6091 14.9526 30.534C14.8731 30.4546 14.8706 30.4393 14.9024 30.4871L10.5691 33.3759C10.9725 33.981 11.5361 34.4977 12.065 34.9208L15.3184 30.8541ZM14.9024 30.4871C15.0934 30.7737 15.167 31.0676 15.181 31.2911C15.1937 31.4936 15.1565 31.6044 15.1616 31.5872L10.1733 30.0907C9.91692 30.9452 9.79074 32.2084 10.5691 33.3759L14.9024 30.4871ZM15.1871 31.4963C15.0846 31.8892 14.8784 31.8645 15.3435 31.5692C15.7747 31.2954 16.527 30.9569 17.7135 30.6031L16.225 25.6123C14.8168 26.0323 13.5547 26.536 12.552 27.1726C11.5831 27.7878 10.5234 28.7417 10.1478 30.1817L15.1871 31.4963ZM17.7534 30.5908C20.0851 29.8545 22.5285 29.4826 25.0948 29.4826V24.2746C22.0165 24.2746 19.0428 24.7221 16.1851 25.6246L17.7534 30.5908ZM25.0948 29.4826C26.6552 29.4826 27.6862 29.8657 28.4024 30.4284L31.62 26.3333C29.7869 24.893 27.5404 24.2746 25.0948 24.2746V29.4826ZM28.4374 30.4554C29.135 30.9846 29.5593 31.6924 29.6741 32.8117L34.8549 32.2804C34.6055 29.849 33.5276 27.78 31.585 26.3062L28.4374 30.4554ZM34.3161 34.1496C37.0785 30.6155 39.8724 29.2095 42.7117 29.2095V24.0015C37.8123 24.0015 33.6415 26.5559 30.2128 30.9425L34.3161 34.1496ZM37.3051 47.5633C38.3889 43.5445 39.0337 40.4276 39.0337 38.4866H33.8257C33.8257 39.6411 33.3781 42.1234 32.2768 46.2074L37.3051 47.5633ZM39.0337 38.4866C39.0337 37.8873 38.9862 37.2543 38.8309 36.6552C38.682 36.0809 38.3685 35.2849 37.6464 34.6659L34.2571 38.6201C34.0499 38.4425 33.9306 38.2623 33.8681 38.1464C33.8367 38.088 33.8171 38.0413 33.8059 38.0115C33.7946 37.9816 33.79 37.9641 33.7896 37.9622C33.7893 37.9612 33.7995 38.0017 33.8092 38.0965C33.8186 38.1896 33.8257 38.3178 33.8257 38.4866H39.0337ZM37.9288 34.9483C37.0212 33.8894 35.7841 33.561 34.7227 33.561V38.769C34.7485 38.769 34.6551 38.7734 34.4958 38.7114C34.3208 38.6434 34.1304 38.5193 33.9746 38.3376L37.9288 34.9483ZM34.7227 33.561C33.545 33.561 32.4964 34.1055 31.744 34.5891L34.5603 38.97C34.6671 38.9013 34.7558 38.8499 34.8272 38.8121C34.899 38.774 34.9467 38.7534 34.9717 38.7436C34.9972 38.7336 34.9896 38.7387 34.9524 38.7469C34.9151 38.755 34.8359 38.769 34.7227 38.769V33.561ZM31.8602 34.5187C30.7623 35.146 29.8617 36.12 29.107 37.1982L33.3735 40.1848C33.8934 39.4421 34.2674 39.1414 34.4441 39.0405L31.8602 34.5187ZM28.7471 37.9397L23.3528 55.8297L28.3391 57.3332L33.7334 39.4432L28.7471 37.9397ZM24.0046 58.4228C25.0402 59.4583 26.363 60.0048 27.8261 60.0048V54.7969C27.7864 54.7969 27.7636 54.7934 27.7543 54.7916C27.7455 54.7899 27.744 54.7889 27.7463 54.7899C27.7487 54.7908 27.7471 54.7906 27.7401 54.7859C27.7327 54.7808 27.7147 54.7676 27.6872 54.7402L24.0046 58.4228ZM27.8261 60.0048C30.1403 60.0048 31.9739 58.689 33.3419 56.9791L29.2752 53.7257C28.4581 54.747 27.9702 54.7969 27.8261 54.7969V60.0048ZM33.3355 56.987C34.846 55.114 36.1183 51.8088 37.2988 47.5865L32.2831 46.1842C31.0964 50.4289 30.0471 52.7684 29.2816 53.7177L33.3355 56.987Z" fill="#222222"/>
<path d="M71.7714 50.0414C75.14 50.0414 77.8257 51.2477 79.8287 53.6604C81.8772 56.073 82.9014 59.2595 82.9014 63.2199C82.9014 65.2684 82.651 67.2713 82.1503 69.2287C80.6936 75.101 78.1899 79.5394 74.6392 82.5438C71.1341 85.5482 67.0826 87.0505 62.4849 87.0505C59.8902 87.0505 57.6369 86.618 55.725 85.7531C53.8586 84.8427 52.3564 83.5681 51.2184 81.9293L48.7602 84.046C47.8042 84.8654 46.871 85.48 45.9606 85.8897C45.0502 86.2538 44.0032 86.4359 42.8196 86.4359H39.8152C38.6771 86.4359 37.7895 86.2083 37.1522 85.7531C36.5604 85.2524 36.2645 84.5468 36.2645 83.6363C36.2645 83.2266 36.3328 82.7487 36.4693 82.2024L47.8725 45.1251C48.0091 44.7154 48.0774 44.3739 48.0774 44.1008C48.0774 43.327 47.5994 42.5986 46.6434 41.9158C46.1882 41.5061 45.8696 41.1874 45.6875 40.9598C45.5054 40.6867 45.4826 40.3453 45.6192 39.9356C45.9378 38.8886 47.3718 37.9782 49.921 37.2043C52.5157 36.3849 55.2243 35.9752 58.0466 35.9752C60.6868 35.9752 62.6215 36.4987 63.8506 37.5457C65.1252 38.5472 65.7625 39.9128 65.7625 41.6427C65.7625 42.5986 65.6032 43.5546 65.2845 44.5105L62.4167 53.7969C65.0569 51.2932 68.1752 50.0414 71.7714 50.0414ZM64.0554 68.8191C64.9659 65.7236 65.4211 63.2199 65.4211 61.308C65.4211 59.214 64.8066 58.167 63.5775 58.167C62.4849 58.167 61.4607 58.736 60.5048 59.8741L56.0664 74.3499L55.6567 75.6473C55.4291 76.3301 55.3153 77.0357 55.3153 77.764C55.3153 79.3573 56.0664 80.1539 57.5686 80.1539C58.6611 80.1539 59.7081 79.3573 60.7096 77.764C61.7111 76.1708 62.8264 73.1891 64.0554 68.8191Z" fill="#222222"/>
<path d="M79.8287 53.6604L77.8251 55.3237L77.8343 55.3348L77.8437 55.3457L79.8287 53.6604ZM82.1503 69.2287L79.6275 68.5834L79.6252 68.5926L79.6229 68.6018L82.1503 69.2287ZM74.6392 82.5438L72.9572 80.556L72.9509 80.5613L72.9446 80.5667L74.6392 82.5438ZM55.725 85.7531L54.5833 88.0935L54.6173 88.11L54.6517 88.1256L55.725 85.7531ZM51.2184 81.9293L53.3572 80.444L51.7089 78.0705L49.5192 79.9561L51.2184 81.9293ZM48.7602 84.046L50.4548 86.0231L50.4593 86.0193L48.7602 84.046ZM45.9606 85.8897L46.9277 88.3074L46.9789 88.2869L47.0292 88.2643L45.9606 85.8897ZM37.1522 85.7531L35.4701 87.7409L35.5517 87.8099L35.6386 87.872L37.1522 85.7531ZM36.4693 82.2024L33.9804 81.4369L33.96 81.5034L33.9431 81.5708L36.4693 82.2024ZM47.8725 45.1251L45.4021 44.3016L45.3925 44.3305L45.3836 44.3596L47.8725 45.1251ZM46.6434 41.9158L44.9015 43.8513L45.0105 43.9495L45.1299 44.0347L46.6434 41.9158ZM45.6875 40.9598L43.5208 42.4043L43.5835 42.4983L43.6541 42.5865L45.6875 40.9598ZM45.6192 39.9356L48.0896 40.759L48.1004 40.7265L48.1104 40.6938L45.6192 39.9356ZM49.921 37.2043L50.6774 39.696L50.6913 39.6918L50.7051 39.6874L49.921 37.2043ZM63.8506 37.5457L62.162 39.528L62.2012 39.5614L62.2418 39.5933L63.8506 37.5457ZM65.2845 44.5105L62.8142 43.6871L62.805 43.7145L62.7965 43.7421L65.2845 44.5105ZM62.4167 53.7969L59.9286 53.0286L56.9955 62.5263L64.2085 55.6864L62.4167 53.7969ZM64.0554 68.8191L61.5573 68.0843L61.5529 68.0991L61.5487 68.114L64.0554 68.8191ZM60.5048 59.8741L58.5109 58.1992L58.1704 58.6046L58.0152 59.1107L60.5048 59.8741ZM56.0664 74.3499L58.5495 75.1341L58.5528 75.1237L58.556 75.1132L56.0664 74.3499ZM55.6567 75.6473L58.1271 76.4707L58.1336 76.4511L58.1398 76.4314L55.6567 75.6473ZM60.7096 77.764L62.9142 79.1498L62.9142 79.1498L60.7096 77.764ZM71.7714 52.6454C74.4311 52.6454 76.3574 53.5557 77.8251 55.3237L81.8322 51.997C79.2941 48.9398 75.8488 47.4374 71.7714 47.4374V52.6454ZM77.8437 55.3457C79.3999 57.1787 80.2974 59.717 80.2974 63.2199H85.5054C85.5054 58.8021 84.3544 54.9673 81.8137 51.975L77.8437 55.3457ZM80.2974 63.2199C80.2974 65.0537 80.0736 66.8398 79.6275 68.5834L84.673 69.8741C85.2285 67.7029 85.5054 65.483 85.5054 63.2199H80.2974ZM79.6229 68.6018C78.2585 74.1022 75.9801 77.9981 72.9572 80.556L76.3212 84.5317C80.3997 81.0807 83.1287 76.0999 84.6777 69.8557L79.6229 68.6018ZM72.9446 80.5667C69.9092 83.1684 66.4582 84.4465 62.4849 84.4465V89.6544C67.707 89.6544 72.3589 87.928 76.3339 84.5209L72.9446 80.5667ZM62.4849 84.4465C60.1751 84.4465 58.3031 84.0613 56.7983 83.3806L54.6517 88.1256C56.9707 89.1747 59.6053 89.6544 62.4849 89.6544V84.4465ZM56.8666 83.4127C55.3833 82.6891 54.2308 81.702 53.3572 80.444L49.0795 83.4146C50.482 85.4341 52.3339 86.9962 54.5833 88.0935L56.8666 83.4127ZM49.5192 79.9561L47.061 82.0728L50.4593 86.0193L52.9175 83.9025L49.5192 79.9561ZM47.0655 82.0689C46.2514 82.7667 45.5258 83.2298 44.892 83.515L47.0292 88.2643C48.2163 87.7301 49.357 86.9641 50.4548 86.0231L47.0655 82.0689ZM44.9935 83.4719C44.4472 83.6904 43.7388 83.8319 42.8196 83.8319V89.0399C44.2676 89.0399 45.6532 88.8172 46.9277 88.3074L44.9935 83.4719ZM42.8196 83.8319H39.8152V89.0399H42.8196V83.8319ZM39.8152 83.8319C38.9846 83.8319 38.7023 83.6602 38.6657 83.6341L35.6386 87.872C36.8767 88.7564 38.3697 89.0399 39.8152 89.0399V83.8319ZM38.8342 83.7652C38.8361 83.7669 38.8474 83.777 38.8612 83.7958C38.8751 83.8147 38.8838 83.8317 38.8878 83.8413C38.8964 83.8619 38.8685 83.8102 38.8685 83.6363H33.6605C33.6605 85.1647 34.1894 86.6572 35.4701 87.7409L38.8342 83.7652ZM38.8685 83.6363C38.8685 83.5021 38.8929 83.2447 38.9956 82.834L33.9431 81.5708C33.7727 82.2526 33.6605 82.9512 33.6605 83.6363H38.8685ZM38.9583 82.9679L50.3615 45.8905L45.3836 44.3596L33.9804 81.4369L38.9583 82.9679ZM50.3429 45.9485C50.5228 45.4088 50.6814 44.7678 50.6814 44.1008H45.4734C45.4734 44.0267 45.4819 44.0051 45.4727 44.051C45.4641 44.0943 45.444 44.176 45.4021 44.3016L50.3429 45.9485ZM50.6814 44.1008C50.6814 42.117 49.4284 40.705 48.157 39.7968L45.1299 44.0347C45.2758 44.1389 45.3768 44.2261 45.4443 44.2924C45.5116 44.3587 45.5378 44.3968 45.5418 44.4029C45.5448 44.4073 45.5256 44.379 45.5063 44.3185C45.4864 44.2558 45.4734 44.1803 45.4734 44.1008H50.6814ZM48.3854 39.9803C48.1806 39.7959 48.0223 39.6462 47.9043 39.5282C47.8459 39.4698 47.8016 39.4233 47.7692 39.388C47.7532 39.3706 47.7413 39.3571 47.7329 39.3474C47.7244 39.3376 47.7207 39.333 47.7209 39.3331L43.6541 42.5865C43.9767 42.9898 44.4294 43.4264 44.9015 43.8513L48.3854 39.9803ZM47.8541 39.5154C48.0265 39.7739 48.1145 40.0623 48.1321 40.3257C48.1482 40.5681 48.1012 40.724 48.0896 40.759L43.1488 39.1121C42.845 40.0237 42.7601 41.2632 43.5208 42.4043L47.8541 39.5154ZM48.1104 40.6938C48.0116 41.0182 47.8613 40.963 48.3294 40.6658C48.7681 40.3873 49.5159 40.0486 50.6774 39.696L49.1646 34.7126C47.7769 35.1339 46.533 35.6373 45.5379 36.2692C44.572 36.8824 43.5454 37.8059 43.128 39.1774L48.1104 40.6938ZM50.7051 39.6874C53.0368 38.9511 55.4803 38.5792 58.0466 38.5792V33.3712C54.9682 33.3712 51.9946 33.8187 49.1368 34.7212L50.7051 39.6874ZM58.0466 38.5792C60.4344 38.5792 61.6231 39.0689 62.162 39.528L65.5392 35.5634C63.62 33.9285 60.9393 33.3712 58.0466 33.3712V38.5792ZM62.2418 39.5933C62.8409 40.064 63.1585 40.65 63.1585 41.6427H68.3665C68.3665 39.1757 67.4095 37.0303 65.4594 35.4981L62.2418 39.5933ZM63.1585 41.6427C63.1585 42.3039 63.0491 42.9822 62.8142 43.6871L67.7549 45.334C68.1572 44.1269 68.3665 42.8933 68.3665 41.6427H63.1585ZM62.7965 43.7421L59.9286 53.0286L64.9047 54.5653L67.7726 45.2789L62.7965 43.7421ZM64.2085 55.6864C66.3713 53.6355 68.8506 52.6454 71.7714 52.6454V47.4374C67.4997 47.4374 63.7426 48.951 60.6249 51.9074L64.2085 55.6864ZM66.5536 69.5538C67.4931 66.3595 68.0251 63.5812 68.0251 61.308H62.8171C62.8171 62.8585 62.4386 65.0877 61.5573 68.0843L66.5536 69.5538ZM68.0251 61.308C68.0251 60.0915 67.8617 58.7513 67.2059 57.6341C66.424 56.3019 65.1015 55.563 63.5775 55.563V60.771C63.5065 60.771 63.3183 60.7527 63.0981 60.6276C62.8764 60.5017 62.7581 60.3447 62.7145 60.2704C62.6806 60.2127 62.713 60.2431 62.7503 60.4338C62.7868 60.6203 62.8171 60.9041 62.8171 61.308H68.0251ZM63.5775 55.563C61.4646 55.563 59.7734 56.6962 58.5109 58.1992L62.4986 61.5489C63.148 60.7759 63.5053 60.771 63.5775 60.771V55.563ZM58.0152 59.1107L53.5768 73.5866L58.556 75.1132L62.9944 60.6374L58.0152 59.1107ZM53.5833 73.5658L53.1736 74.8632L58.1398 76.4314L58.5495 75.1341L53.5833 73.5658ZM53.1863 74.8238C52.8692 75.7754 52.7113 76.7592 52.7113 77.764H57.9193C57.9193 77.3122 57.989 76.8848 58.1271 76.4707L53.1863 74.8238ZM52.7113 77.764C52.7113 78.9251 52.9821 80.2802 53.984 81.3428C55.013 82.4342 56.3757 82.7579 57.5686 82.7579V77.5499C57.416 77.5499 57.3924 77.5289 57.4507 77.5495C57.5232 77.5751 57.6515 77.641 57.7733 77.7701C57.8919 77.8959 57.9332 78.0063 57.9403 78.0289C57.944 78.0406 57.9193 77.9659 57.9193 77.764H52.7113ZM57.5686 82.7579C60.0562 82.7579 61.7829 80.9496 62.9142 79.1498L58.505 76.3783C58.1049 77.0147 57.7889 77.3377 57.5965 77.4841C57.431 77.61 57.4362 77.5499 57.5686 77.5499V82.7579ZM62.9142 79.1498C64.1369 77.2046 65.334 73.8911 66.5622 69.5241L61.5487 68.114C60.3188 72.4872 59.2852 75.1369 58.505 76.3783L62.9142 79.1498Z" fill="#E85C3B"/>
</svg>
