<svg width="94" height="95" viewBox="0 0 94 95" fill="none" xmlns="http://www.w3.org/2000/svg">
<path d="M46.8696 0L51.3592 28.0502L67.7127 4.70398L59.4493 31.9025L84.4276 17.8842L65.0477 38.844L93.7037 36.9303L67.0458 47.5L93.7037 58.0697L65.0477 56.156L84.4276 77.1158L59.4493 63.0975L67.7127 90.296L51.3592 66.9498L46.8696 95L42.38 66.9498L26.0265 90.296L34.29 63.0975L9.31165 77.1158L28.6915 56.156L0.0356026 58.0697L26.6935 47.5L0.0356026 36.9303L28.6915 38.844L9.31165 17.8842L34.29 31.9025L26.0265 4.70398L42.38 28.0502L46.8696 0Z" fill="#E85C3B"/>
</svg>
