<svg width="80" height="83" viewBox="0 0 80 83" fill="none" xmlns="http://www.w3.org/2000/svg">
<path d="M38.8107 1.86092C38.9862 0.523425 40.9219 0.523424 41.0973 1.86092L44.1792 25.3532C44.3051 26.3133 45.4868 26.7 46.156 26L62.6064 8.79371C63.5395 7.81769 65.1017 8.96514 64.4495 10.1475L53.013 30.8807C52.5427 31.7332 53.2753 32.7487 54.2327 32.5714L77.6909 28.2267C79.0208 27.9804 79.6152 29.8298 78.3908 30.4044L56.8644 40.5071C55.9802 40.9221 55.9802 42.1799 56.8644 42.5949L78.3908 52.6976C79.6152 53.2722 79.0208 55.1216 77.6909 54.8753L54.2327 50.5306C53.2753 50.3533 52.5427 51.3689 53.013 52.2213L64.4495 72.9545C65.1017 74.1369 63.5395 75.2843 62.6064 74.3083L46.156 57.102C45.4868 56.402 44.3051 56.7887 44.1792 57.7488L41.0973 81.2411C40.9219 82.5786 38.9862 82.5786 38.8107 81.2411L35.7289 57.7488C35.6029 56.7887 34.4212 56.402 33.7521 57.102L17.3017 74.3083C16.3685 75.2843 14.8063 74.1369 15.4585 72.9545L26.8951 52.2213C27.3653 51.3689 26.6327 50.3533 25.6754 50.5306L2.21713 54.8753C0.887243 55.1216 0.292862 53.2722 1.51723 52.6976L23.0436 42.5949C23.9279 42.1799 23.9279 40.9221 23.0436 40.5071L1.51723 30.4044C0.29286 29.8298 0.887243 27.9804 2.21713 28.2267L25.6754 32.5714C26.6327 32.7487 27.3653 31.7332 26.8951 30.8807L15.4585 10.1475C14.8063 8.96515 16.3685 7.81769 17.3017 8.79371L33.7521 26C34.4212 26.7 35.6029 26.3133 35.7289 25.3532L38.8107 1.86092Z" fill="#C58BF1"/>
</svg>
