<svg width="29" height="28" viewBox="0 0 29 28" fill="none" xmlns="http://www.w3.org/2000/svg">
<path d="M4.64516 16.89C3.75186 15.9967 2.85856 15.1034 2.14392 14.2101C1.25062 12.9595 -0.535967 11.7089 1.96526 10.1009C2.6799 9.56496 2.14392 8.49297 1.96526 7.77833C1.42929 6.1704 1.25062 4.56249 1.25062 2.06126C3.5732 5.45579 5.89577 7.42105 9.2903 8.31434C10.3623 8.67166 11.4342 8.67164 12.6848 8.8503C14.8287 9.02896 15.722 7.95698 15.9007 5.81307C16.4367 0.274625 19.4739 -1.51197 24.2977 1.34658C26.0843 2.41854 26.7989 0.810614 28.2282 0.631955C28.7642 2.06123 29.6575 3.49051 28.2282 5.09844C27.5136 5.81308 27.6922 6.88505 27.6922 7.957C27.5135 16.354 22.3324 23.3217 14.2928 25.8229C11.7915 26.7162 9.11163 27.2522 6.25308 27.2522C3.93051 27.0735 1.78659 26.7163 0 24.3937C2.32257 24.0364 5.00247 25.287 6.61041 22.6071C5.53845 20.9992 2.67989 20.4632 2.50123 17.7833C2.85855 16.89 4.10918 17.7833 4.64516 16.89Z" fill="#222222"/>
</svg>
