<svg width="29" height="28" viewBox="0 0 29 28" fill="none" xmlns="http://www.w3.org/2000/svg">
<path d="M10.4129 18.6773C10.4129 16.3633 10.4129 14.2146 10.4129 11.9006C10.5781 8.92545 12.231 7.43788 14.8756 8.59488C16.1979 9.09074 17.0243 9.25603 18.016 8.76017C20.4953 7.43789 22.644 8.42958 24.958 9.25601C26.4455 9.75187 27.272 10.9089 27.7678 12.3964C29.0901 16.6939 29.0901 20.9913 28.9249 25.2887C28.9249 26.4457 28.429 27.2721 27.1067 27.4374C26.7761 27.4374 26.6109 27.4374 26.2803 27.6027C21.6523 28.4292 21.1564 28.0986 21.6523 23.4706C21.8175 21.4872 22.1481 19.5037 21.6523 17.5203C21.3217 16.5286 20.9911 15.3716 19.6689 15.2063C18.5119 15.041 17.6854 15.8674 17.0243 16.6939C16.3631 17.5203 16.1979 18.512 16.1979 19.669C16.1979 21.3218 16.1979 22.8095 16.1979 24.4623C16.1979 27.768 16.0326 27.9333 13.0574 27.768C10.2476 27.768 10.2476 27.768 10.2476 24.9581C10.4128 22.9747 10.4129 20.826 10.4129 18.6773Z" fill="#222222"/>
<path d="M1.32228 18.3467C1.32228 16.0327 1.32228 13.884 1.32228 11.57C1.32228 9.58656 2.4793 9.25598 4.13215 9.0907C5.9503 9.0907 6.28085 10.0824 6.28085 11.57C6.61142 15.8674 6.61143 20.1649 6.44614 24.4623C6.44614 25.9499 6.44615 27.768 4.13215 27.768C2.14873 27.9333 1.15698 27.1068 1.15698 25.1234C1.15698 22.8094 1.15698 20.3301 1.15698 18.0161C1.15698 18.3467 1.32228 18.3467 1.32228 18.3467Z" fill="#222222"/>
<path d="M2.80983 0C5.28911 0 6.61142 0.991714 6.61142 2.47928C6.61142 4.29743 4.46268 6.44613 2.80983 6.44613C1.15697 6.44613 0 5.12385 0 3.30571C0.165286 1.157 1.15697 0 2.80983 0Z" fill="#222222"/>
</svg>
