<svg width="61" height="60" viewBox="0 0 61 60" fill="none" xmlns="http://www.w3.org/2000/svg">
<path d="M26.5732 3.5443C27.5822 -0.497136 33.3259 -0.497145 34.3349 3.54429L38.2743 19.3229C38.6341 20.7643 39.7633 21.8875 41.2066 22.2398L56.9887 26.0923C61.0573 27.0854 61.0573 32.8709 56.9887 33.8641L41.2066 37.7165C39.7633 38.0688 38.6341 39.192 38.2743 40.6335L34.3349 56.412C33.3259 60.4535 27.5822 60.4535 26.5732 56.412L22.6338 40.6335C22.2739 39.192 21.1448 38.0688 19.7015 37.7165L3.91931 33.8641C-0.149288 32.8709 -0.149288 27.0854 3.91931 26.0923L19.7015 22.2398C21.1448 21.8875 22.2739 20.7643 22.6338 19.3229L26.5732 3.5443Z" fill="#F8EEEC"/>
</svg>
