<svg width="38" height="37" viewBox="0 0 38 37" fill="none" xmlns="http://www.w3.org/2000/svg">
<path d="M16.6232 2.51975C17.2412 0.0446673 20.7588 0.0446624 21.3768 2.51975L23.7893 12.183C24.0097 13.0657 24.7012 13.7536 25.5852 13.9694L35.2506 16.3287C37.7423 16.937 37.7423 20.4802 35.2506 21.0884L25.5852 23.4477C24.7012 23.6635 24.0097 24.3514 23.7893 25.2342L21.3768 34.8974C20.7588 37.3725 17.2412 37.3725 16.6232 34.8974L14.2107 25.2342C13.9903 24.3514 13.2988 23.6635 12.4148 23.4477L2.74941 21.0884C0.257691 20.4802 0.257698 16.937 2.74942 16.3287L12.4148 13.9694C13.2988 13.7536 13.9903 13.0657 14.2107 12.183L16.6232 2.51975Z" fill="#E85C3B"/>
</svg>
